PathFileType  4	(X/Y/Z) C:\Users\wagnerel85475\Documents\Thesis\opencap-core\Data\3375ffbc-daeb-4a43-b4f7-ac9899cd4c71\MarkerData\PreAugmentation
DataRate	CameraRate	NumFrames	NumMarkers	Units	OrigDataRate	OrigDataStartFrame	OrigNumFrames
60.0	60.0	19	20	m	60.0	1	584
Frame#	Time	Neck			RShoulder			RElbow			RWrist			LShoulder			LElbow			LWrist			midHip			RHip			RKnee			RAnkle			LHip			LKnee			LAnkle			LBigToe			LSmallToe			LHeel			RBigToe			RSmallToe			RHeel			
		X1	Y1	Z1	X2	Y2	Z2	X3	Y3	Z3	X4	Y4	Z4	X5	Y5	Z5	X6	Y6	Z6	X7	Y7	Z7	X8	Y8	Z8	X9	Y9	Z9	X10	Y10	Z10	X11	Y11	Z11	X12	Y12	Z12	X13	Y13	Z13	X14	Y14	Z14	X15	Y15	Z15	X16	Y16	Z16	X17	Y17	Z17	X18	Y18	Z18	X19	Y19	Z19	X20	Y20	Z20	

1	0.0000000	0.2488900	1.8123900	-0.1178500	0.2793000	1.8032300	0.0727300	0.2380700	1.5000700	0.1408700	0.3176700	1.2085300	0.1919400	0.2751600	1.8195100	-0.3014700	0.2971000	1.5762900	-0.4484700	0.5159300	1.4413000	-0.5630000	0.2878500	1.2635500	-0.1268600	0.3020600	1.2652800	-0.0087100	0.2142500	0.7688900	-0.0408400	0.1809900	0.2625300	-0.0248800	0.2754000	1.2619700	-0.2431200	0.2097100	0.7711200	-0.2039800	0.1789500	0.2582000	-0.2176600	0.3850100	0.1932100	-0.2437800	0.3248400	0.1878900	-0.2824600	0.1157800	0.2203400	-0.2058300	0.4067400	0.1951000	-0.0183100	0.3552800	0.1988700	0.0161400	0.1264000	0.2177200	-0.0422500
2	0.0166667	0.2485100	1.8123700	-0.1180700	0.2793200	1.8031600	0.0726400	0.2379100	1.4954100	0.1408600	0.3169500	1.2086800	0.1918400	0.2747400	1.8215500	-0.3013700	0.2902200	1.5743600	-0.4414100	0.5154400	1.4348900	-0.5582000	0.2877700	1.2638000	-0.1268600	0.3014200	1.2678500	-0.0087500	0.2140100	0.7688400	-0.0408600	0.1810200	0.2624200	-0.0249100	0.2749700	1.2643900	-0.2432000	0.2097300	0.7718300	-0.2037700	0.1793500	0.2582500	-0.2175100	0.3854700	0.1932500	-0.2437200	0.3245600	0.1879000	-0.2825700	0.1225700	0.2218700	-0.2033000	0.4065700	0.1952200	-0.0183000	0.3548600	0.1989100	0.0164200	0.1263500	0.2177200	-0.0422300
3	0.0333333	0.2486700	1.8104600	-0.1179300	0.2792900	1.8032000	0.0727400	0.2312000	1.4956800	0.1389900	0.3108800	1.2083600	0.1900900	0.2751500	1.8194800	-0.3014300	0.2776800	1.5723900	-0.4368100	0.5204300	1.4234700	-0.5509500	0.2875500	1.2660100	-0.1268600	0.3017600	1.2677600	-0.0087100	0.2142600	0.7687800	-0.0408500	0.1813500	0.2601600	-0.0251300	0.2689800	1.2642800	-0.2406300	0.2097500	0.7709400	-0.2039700	0.1854200	0.2595700	-0.2152900	0.3850000	0.1933100	-0.2437800	0.3248100	0.1879700	-0.2824600	0.1158100	0.2203000	-0.2058200	0.4067200	0.1950900	-0.0183200	0.3552900	0.1988600	0.0161300	0.1264000	0.2177200	-0.0422500
4	0.0500000	0.2549500	1.8116300	-0.1158200	0.2793000	1.8031300	0.0726500	0.2306600	1.4983700	0.1388300	0.3102100	1.2085300	0.1899800	0.2745600	1.8195100	-0.3014700	0.2770600	1.5649700	-0.4317000	0.5315600	1.4041500	-0.5454700	0.2874400	1.2662500	-0.1268400	0.3011900	1.2657800	-0.0087200	0.2141200	0.7687100	-0.0408300	0.1810200	0.2624200	-0.0249100	0.2747500	1.2667100	-0.2383100	0.2099300	0.7698200	-0.2036600	0.1793500	0.2582800	-0.2175100	0.3854800	0.1933200	-0.2437100	0.3245500	0.1879500	-0.2825600	0.1150600	0.2178900	-0.2057600	0.4127500	0.1966900	-0.0162700	0.3548800	0.1989100	0.0164300	0.1266400	0.2151400	-0.0424800
5	0.0666667	0.2486600	1.8104200	-0.1179100	0.2792700	1.8031600	0.0727500	0.2308600	1.4983000	0.1388800	0.3110400	1.2056800	0.1900500	0.2690200	1.8200600	-0.2991100	0.2713600	1.5579900	-0.4290600	0.5257800	1.3870300	-0.5386900	0.2812600	1.2638500	-0.1242500	0.2956400	1.2656100	-0.0060000	0.2142900	0.7687600	-0.0408600	0.1813700	0.2601500	-0.0251200	0.2684700	1.2643000	-0.2406400	0.2098800	0.7689300	-0.2038700	0.1789400	0.2582600	-0.2176600	0.3850500	0.1932800	-0.2437500	0.3253900	0.1902100	-0.2822600	0.1147900	0.2179600	-0.2059400	0.4129200	0.1965600	-0.0162800	0.3553300	0.1988600	0.0161300	0.1266800	0.2151500	-0.0425000
6	0.0833333	0.2550300	1.8071600	-0.1157700	0.2793100	1.8031400	0.0726400	0.2236700	1.4986200	0.1368800	0.3159200	1.2059000	0.1871300	0.2748300	1.8169300	-0.3013000	0.2645500	1.5562500	-0.4265700	0.4959900	1.3750400	-0.5234000	0.2875600	1.2616600	-0.1268300	0.3015400	1.2633200	-0.0087200	0.2202300	0.7693500	-0.0435400	0.1810400	0.2624500	-0.0249100	0.2686000	1.2620500	-0.2407100	0.2097900	0.7670700	-0.2037300	0.1793600	0.2582700	-0.2175200	0.3856800	0.1932600	-0.2484400	0.3245700	0.1879100	-0.2825700	0.1161600	0.2161100	-0.2057000	0.4130900	0.1987500	-0.0165500	0.3549800	0.2007100	0.0161900	0.1263300	0.2177300	-0.0422200
7	0.1000000	0.2486800	1.8104400	-0.1179200	0.2792300	1.8032400	0.0727200	0.2240900	1.4959200	0.1370000	0.3165400	1.2057100	0.1872000	0.2692200	1.8154900	-0.2990600	0.2708100	1.5557700	-0.4190900	0.4904200	1.3618300	-0.5212700	0.2873800	1.2638900	-0.1268800	0.3015800	1.2656400	-0.0087200	0.2210100	0.7669700	-0.0387600	0.1814100	0.2601300	-0.0251200	0.2747200	1.2643300	-0.2431600	0.2096400	0.7682900	-0.2040700	0.1790100	0.2582000	-0.2176600	0.3968800	0.1960400	-0.2438500	0.3249700	0.1878200	-0.2824200	0.1170600	0.2185700	-0.2058000	0.4134100	0.1985000	-0.0165300	0.3617900	0.2020900	0.0178900	0.1266600	0.2151000	-0.0425100
8	0.1166667	0.2550500	1.8071700	-0.1157900	0.2792700	1.8032200	0.0726200	0.2238700	1.4959100	0.1369300	0.3158700	1.2058800	0.1871000	0.2746900	1.8148900	-0.3014200	0.2703200	1.5540600	-0.4139700	0.4666400	1.3426600	-0.5078900	0.2870800	1.2666200	-0.1268800	0.3077800	1.2658000	-0.0066300	0.2139900	0.7708800	-0.0409800	0.1814500	0.2600400	-0.0251600	0.2746300	1.2644400	-0.2432500	0.2096000	0.7692500	-0.2038400	0.1793800	0.2582300	-0.2175300	0.3914200	0.1945500	-0.2413800	0.3246500	0.1877600	-0.2825500	0.1150500	0.2179900	-0.2058000	0.4132600	0.1986300	-0.0165200	0.3613500	0.2021400	0.0182000	0.1266000	0.2150800	-0.0424900
9	0.1333333	0.2489400	1.8079200	-0.1177700	0.2793600	1.8049500	0.0728100	0.2238100	1.4985100	0.1369100	0.3097300	1.2056100	0.1853300	0.2694900	1.8129700	-0.2988900	0.2641000	1.5520900	-0.4118000	0.4488300	1.3311200	-0.5016100	0.2869900	1.2643100	-0.1269000	0.3012900	1.2681100	-0.0087200	0.2144100	0.7688200	-0.0408300	0.1813800	0.2601500	-0.0251300	0.2808100	1.2621400	-0.2456700	0.2096600	0.7708700	-0.2040000	0.1794700	0.2605600	-0.2175100	0.3850400	0.1931500	-0.2437500	0.3249400	0.1878000	-0.2824200	0.1170700	0.2186800	-0.2058200	0.4134100	0.1985000	-0.0165200	0.3560800	0.2006800	0.0205800	0.1266400	0.2151000	-0.0425100
10	0.1500000	0.2486300	1.8078700	-0.1180200	0.2794100	1.8048600	0.0726900	0.2238100	1.4958800	0.1369100	0.3089800	1.2057700	0.1852300	0.2688500	1.8130500	-0.2989100	0.2510600	1.5483900	-0.4071000	0.4426600	1.3155300	-0.4944400	0.2871200	1.2620400	-0.1268700	0.3012300	1.2657700	-0.0087500	0.2208100	0.7694900	-0.0386800	0.1815900	0.2554700	-0.0251500	0.2807100	1.2621200	-0.2457500	0.2032300	0.7659800	-0.2062700	0.1798700	0.2605900	-0.2173600	0.3915600	0.1946600	-0.2461100	0.3246600	0.1877900	-0.2825600	0.1159400	0.2207900	-0.2057200	0.4184900	0.1980300	-0.0188200	0.3669900	0.2018100	0.0157600	0.1266000	0.2150400	-0.0424800
11	0.1666667	0.2489400	1.8079400	-0.1177900	0.2794100	1.8049300	0.0727700	0.2240800	1.4958900	0.1369900	0.2972200	1.2053200	0.1862900	0.2694800	1.8084200	-0.2988800	0.2386200	1.5463200	-0.4024000	0.4126100	1.3039700	-0.4835900	0.2873600	1.2638900	-0.1268800	0.3015200	1.2656500	-0.0087100	0.2210000	0.7695400	-0.0386700	0.1811600	0.2579300	-0.0248700	0.2747500	1.2642600	-0.2431800	0.2096600	0.7710500	-0.2040000	0.1794800	0.2605600	-0.2175000	0.3910600	0.1946800	-0.2461500	0.3249600	0.1878900	-0.2824200	0.1157200	0.2207900	-0.2059000	0.4131100	0.1965300	-0.0162600	0.3618200	0.2021000	0.0178700	0.1266200	0.2150800	-0.0425000
12	0.1833333	0.2486700	1.8079300	-0.1180600	0.2794800	1.8048900	0.0726700	0.2235900	1.4985700	0.1368500	0.3031900	1.2037600	0.1881200	0.2749000	1.8078700	-0.3012600	0.2445400	1.5369500	-0.3996600	0.4125200	1.2922100	-0.4836000	0.2870300	1.2620500	-0.1268600	0.3011800	1.2657600	-0.0087300	0.2207200	0.7697000	-0.0386600	0.1811900	0.2578400	-0.0249000	0.2744200	1.2620700	-0.2432800	0.2031900	0.7687600	-0.2061900	0.1798600	0.2605600	-0.2173600	0.3975200	0.1959500	-0.2437600	0.3306900	0.1890200	-0.2801600	0.1158900	0.2207700	-0.2057400	0.4129200	0.1966900	-0.0162500	0.3668700	0.2044600	0.0159900	0.1266100	0.2150500	-0.0424700
13	0.2000000	0.2490200	1.8080000	-0.1178200	0.2851700	1.8043400	0.0700400	0.2238000	1.4984400	0.1369400	0.2969900	1.2034600	0.1863700	0.2691900	1.8063300	-0.3038600	0.2385900	1.5325000	-0.3973700	0.4068800	1.2768300	-0.4763200	0.2873200	1.2638900	-0.1268600	0.2956400	1.2656000	-0.0060000	0.2142300	0.7709200	-0.0409400	0.1811400	0.2579300	-0.0248600	0.2686900	1.2619500	-0.2406400	0.2031100	0.7744300	-0.2065900	0.1794800	0.2605700	-0.2175000	0.4027600	0.1974300	-0.2415000	0.3310400	0.1890800	-0.2800200	0.1156600	0.2206900	-0.2059100	0.4130700	0.1965600	-0.0162700	0.3673800	0.2044200	0.0156500	0.1266900	0.2150700	-0.0425000
14	0.2166667	0.2485000	1.8061300	-0.1182000	0.2851900	1.8042700	0.0699500	0.2235400	1.4985500	0.1368700	0.3031000	1.2037300	0.1881600	0.2685100	1.8063900	-0.3038900	0.2382400	1.5257700	-0.3973200	0.3756500	1.2743600	-0.4654500	0.2871100	1.2620800	-0.1268400	0.2953700	1.2657400	-0.0060200	0.2206800	0.7714600	-0.0388000	0.1814400	0.2600500	-0.0251500	0.2745000	1.2621600	-0.2432400	0.2094900	0.7740500	-0.2039000	0.1798400	0.2606300	-0.2173600	0.3974300	0.1961400	-0.2437800	0.3302400	0.1869700	-0.2803600	0.1171100	0.2189200	-0.2056600	0.4184100	0.1980500	-0.0188400	0.3668700	0.2044700	0.0159800	0.1266800	0.2150500	-0.0424900
15	0.2333333	0.2547900	1.8055700	-0.1204800	0.2785200	1.8050800	0.0680500	0.2237900	1.4984500	0.1369600	0.2982200	1.2033900	0.1910700	0.2693300	1.8017300	-0.3038400	0.2323300	1.5236100	-0.3949600	0.3869900	1.2601700	-0.4553800	0.2874900	1.2592800	-0.1268400	0.2959600	1.2631600	-0.0059700	0.2209600	0.7715000	-0.0387700	0.1813800	0.2601300	-0.0251100	0.2753600	1.2550800	-0.2430800	0.2096100	0.7730500	-0.2041200	0.1858800	0.2620000	-0.2151300	0.3968200	0.1961700	-0.2438500	0.3249900	0.1879500	-0.2824300	0.1156200	0.2208000	-0.2059000	0.4185800	0.1979100	-0.0188600	0.3673800	0.2044300	0.0156400	0.1267100	0.2150900	-0.0425100
16	0.2500000	0.2545300	1.8055800	-0.1207700	0.2785500	1.8050200	0.0679200	0.2237100	1.5006000	0.1369200	0.2905200	1.2061000	0.1891300	0.2686500	1.8018100	-0.3039000	0.2318600	1.5215700	-0.3949400	0.3807600	1.2578900	-0.4531600	0.2876400	1.2570500	-0.1268200	0.2956600	1.2632600	-0.0060100	0.2268300	0.7721700	-0.0414700	0.1814400	0.2600700	-0.0251500	0.2752800	1.2551700	-0.2431900	0.2096100	0.7740600	-0.2038700	0.1862200	0.2620600	-0.2150000	0.3915300	0.1947600	-0.2461400	0.3246200	0.1879300	-0.2825700	0.1158300	0.2208500	-0.2057200	0.4128800	0.1966900	-0.0162600	0.3610400	0.2047500	0.0184500	0.1263500	0.2177200	-0.0422400
17	0.2666667	0.2546600	1.8038200	-0.1206300	0.2785700	1.8052000	0.0680400	0.2237700	1.4986200	0.1369600	0.2980300	1.2105600	0.1910500	0.2693100	1.8016400	-0.3038800	0.2320300	1.5215300	-0.3949300	0.3683700	1.2556400	-0.4487100	0.2877700	1.2568000	-0.1268400	0.2959200	1.2631100	-0.0059700	0.2339000	0.7727400	-0.0392400	0.1813700	0.2601400	-0.0251100	0.2815100	1.2551400	-0.2455700	0.2097700	0.7709100	-0.2040000	0.1852600	0.2641800	-0.2153100	0.3909900	0.1947900	-0.2461600	0.3249800	0.1879600	-0.2824200	0.1146800	0.2182700	-0.2059800	0.4133500	0.1985400	-0.0165600	0.3615400	0.2047100	0.0181000	0.1263500	0.2177500	-0.0422500
18	0.2833333	0.2603900	1.8031800	-0.1234600	0.2786100	1.8050700	0.0679000	0.2235700	1.4985700	0.1368900	0.2975300	1.2080900	0.1909900	0.2685300	1.7997800	-0.3040500	0.2254800	1.5196100	-0.3924900	0.3497600	1.2493100	-0.4418400	0.2933900	1.2595900	-0.1294200	0.3015500	1.2632900	-0.0087400	0.2274800	0.7721900	-0.0366100	0.1811600	0.2578400	-0.0248800	0.2812300	1.2575300	-0.2457000	0.2096100	0.7738600	-0.2038900	0.1791900	0.2628500	-0.2175500	0.3915600	0.1948700	-0.2461400	0.3246700	0.1879100	-0.2825700	0.1157600	0.2209400	-0.2057500	0.4183100	0.1961000	-0.0186100	0.3729400	0.2041100	0.0134800	0.1262800	0.2176800	-0.0422000
19	0.3000000	0.2546800	1.8038500	-0.1206400	0.2841200	1.8073100	0.0651200	0.2240000	1.5005900	0.1369800	0.2979400	1.2086600	0.1910900	0.2629600	1.8002500	-0.3065100	0.2196000	1.5196900	-0.3951100	0.3378500	1.2445300	-0.4420900	0.2873800	1.2639000	-0.1269000	0.3016800	1.2677600	-0.0087300	0.2210200	0.7714300	-0.0387400	0.1811200	0.2578800	-0.0248600	0.2748200	1.2597300	-0.2431500	0.2163900	0.7757800	-0.2016300	0.1784600	0.2604300	-0.2178600	0.4082500	0.1967200	-0.2393400	0.3487200	0.1910500	-0.2730500	0.1071400	0.2142000	-0.2085000	0.4184600	0.1959400	-0.0186400	0.3674600	0.2017400	0.0153900	0.1266600	0.2150700	-0.0424700
